<svg id="Layer_4" data-name="Layer 4" xmlns="http://www.w3.org/2000/svg" xmlns:xlink="http://www.w3.org/1999/xlink" width="174.76" height="174.76" viewBox="0 0 174.76 174.76"><defs><style>.cls-1{fill:url(#linear-gradient);}.cls-2{fill:url(#linear-gradient-2);}.cls-3{fill:#008ed3;}.cls-4{fill:#a2238d;}.cls-5{fill:#562d84;stroke:#562d84;stroke-miterlimit:10;stroke-width:2.23px;}</style><linearGradient id="linear-gradient" x1="838.23" y1="-45.26" x2="990.49" y2="-45.26" gradientUnits="userSpaceOnUse"><stop offset="0" stop-color="#b31e8d"/><stop offset="1" stop-color="#e0deef"/></linearGradient><linearGradient id="linear-gradient-2" x1="861.56" y1="-68.08" x2="1012.99" y2="-68.08" gradientUnits="userSpaceOnUse"><stop offset="0" stop-color="#e0deef"/><stop offset="1" stop-color="#0094d9"/></linearGradient></defs><title>ept-layout</title><path class="cls-1" d="M925.37,23.34A80.24,80.24,0,0,1,845.13-56.9a80.09,80.09,0,0,1,31.33-63.59,11.6,11.6,0,0,0-12.69,2.5,86.63,86.63,0,0,0-25.54,61.66A86.63,86.63,0,0,0,863.77,5.33a86.63,86.63,0,0,0,61.66,25.54A86.63,86.63,0,0,0,987.1,5.33a11.61,11.61,0,0,0,2.08-13.59A80.1,80.1,0,0,1,925.37,23.34Z" transform="translate(-838.23 143.89)"/><path class="cls-2" d="M987.45-118.35a86.63,86.63,0,0,0-61.66-25.54,86.63,86.63,0,0,0-61.66,25.54c-0.48.48-2.6,2.47-2.56,3,0.13,1.86,2.57,2.61,4.43,4.5a80,80,0,0,1,59.38-26.28,80.24,80.24,0,0,1,80.24,80.24A80,80,0,0,1,979.53,2.3c2.09,2.39,2.88,6,4.93,5.36a25.42,25.42,0,0,0,3-2.68A86.63,86.63,0,0,0,1013-56.69,86.63,86.63,0,0,0,987.45-118.35Z" transform="translate(-838.23 143.89)"/><circle class="cls-3" cx="982.02" cy="5.03" r="3.73" transform="translate(-554.16 839.76) rotate(-45)"/><circle class="cls-4" cx="863.73" cy="-113.23" r="3.27" transform="translate(-505.18 721.47) rotate(-45)"/><path class="cls-5" d="M926.21-120.8" transform="translate(-838.23 143.89)"/><path class="cls-5" d="M937.13-75.74h0a1.4,1.4,0,0,0,.55,1.85c8.33,4.77,8.09,11.25,8.08,11.53v0.09c0,7.7-8,14.06-18.25,14.9l0.7-41.73a16.46,16.46,0,0,0,14-17.73,16.54,16.54,0,0,0-15.53-14.94,16.46,16.46,0,0,0-17.28,16.42,16.46,16.46,0,0,0,14,16.26v41.77c-10.47-.68-18.72-7.12-18.72-14.95A13.6,13.6,0,0,1,912.58-74a1.4,1.4,0,0,0,.7-1.77h0a1.42,1.42,0,0,0-1.93-.76,16.56,16.56,0,0,0-9.51,14.21c0,7.53,6.17,14,14.85,16.58-6.42,2.26-10.89,7.21-10.89,12.94,0,7.24,7.12,13.23,16.31,14.13-5.92,1.07-10.34,5.13-10.34,10,0,5.18,5.06,9.47,11.61,10.15v9.75a1.57,1.57,0,0,0,1.57,1.57h0a1.57,1.57,0,0,0,1.57-1.55l0.16-9.74c6.72-.56,12-4.91,12-10.19,0-5-4.72-9.17-10.94-10.07,8.77-1.17,15.46-7,15.46-14,0-5.55-4.18-10.36-10.26-12.71,9.1-2.43,15.64-9,15.66-16.77,0-.81.13-8.59-9.46-14.09A1.42,1.42,0,0,0,937.13-75.74ZM923.37-.13c-5.65-.65-10-4.22-10-8.52s4.34-7.88,10-8.52v17Zm0-20.66c-8.55-.42-15.32-5.62-15.32-12,0-6,6.14-11,14.09-11.87l1.23,0.1v23.73Zm4.28-70.5a14.21,14.21,0,0,1-15.92-15.92A14.23,14.23,0,0,1,924-119.43a14.21,14.21,0,0,1,15.92,15.92A14.23,14.23,0,0,1,927.65-91.29ZM937-8.65c0,4.39-4.51,8-10.32,8.56L927-17.18C932.67-16.55,937-13,937-8.65Zm3.89-24.1c0,6-6,10.94-13.86,11.84l0.4-23.64C935.1-43.51,940.92-38.62,940.92-32.75Z" transform="translate(-838.23 143.89)"/></svg>