<svg id="Layer_4" data-name="Layer 4" xmlns="http://www.w3.org/2000/svg" xmlns:xlink="http://www.w3.org/1999/xlink" width="174.76" height="174.76" viewBox="0 0 174.76 174.76"><defs><style>.cls-1{fill:url(#linear-gradient);}.cls-2{fill:url(#linear-gradient-2);}.cls-3{fill:#008ed3;}.cls-4{fill:#a2238d;}.cls-5{fill:none;stroke:#562d84;stroke-miterlimit:10;stroke-width:4.54px;}</style><linearGradient id="linear-gradient" x1="3261.28" y1="629.51" x2="3413.54" y2="629.51" gradientUnits="userSpaceOnUse"><stop offset="0" stop-color="#b31e8d"/><stop offset="1" stop-color="#e0deef"/></linearGradient><linearGradient id="linear-gradient-2" x1="3284.6" y1="606.69" x2="3436.03" y2="606.69" gradientUnits="userSpaceOnUse"><stop offset="0" stop-color="#e0deef"/><stop offset="1" stop-color="#0094d9"/></linearGradient></defs><title>ept-layout</title><path class="cls-1" d="M3348.42,698.11a80.23,80.23,0,0,1-48.91-143.83,11.6,11.6,0,0,0-12.69,2.5A87.2,87.2,0,1,0,3410.14,680.1a11.61,11.61,0,0,0,2.08-13.59A80.1,80.1,0,0,1,3348.42,698.11Z" transform="translate(-3261.28 -530.88)"/><path class="cls-2" d="M3410.49,556.42a87.2,87.2,0,0,0-123.32,0c-0.48.48-2.6,2.47-2.56,3,0.13,1.86,2.57,2.61,4.43,4.5a80.24,80.24,0,1,1,113.54,113.16c2.09,2.39,2.88,6,4.93,5.36a25.42,25.42,0,0,0,3-2.68A87.2,87.2,0,0,0,3410.49,556.42Z" transform="translate(-3261.28 -530.88)"/><circle class="cls-3" cx="3405.07" cy="679.8" r="3.73" transform="translate(-2744.65 2075.98) rotate(-45)"/><circle class="cls-4" cx="3286.77" cy="561.54" r="3.27" transform="translate(-2695.67 1957.69) rotate(-45)"/><circle class="cls-5" cx="3313.51" cy="622.71" r="22.38" transform="translate(-3226.07 879.12) rotate(-24.15)"/><circle class="cls-5" cx="3334.34" cy="648.7" r="22.38" transform="translate(-3234.88 889.92) rotate(-24.15)"/><circle class="cls-5" cx="3368.56" cy="645.73" r="22.38" transform="translate(-3230.67 903.66) rotate(-24.15)"/><circle class="cls-5" cx="3327.67" cy="590.53" r="22.38" transform="translate(-3211.67 882.1) rotate(-24.15)"/><circle class="cls-5" cx="3360.82" cy="586.38" r="22.38" transform="translate(-3207.07 895.3) rotate(-24.15)"/><circle class="cls-5" cx="3381.8" cy="613.52" r="22.38" transform="translate(-3216.34 906.26) rotate(-24.15)"/></svg>