<svg id="Layer_5" data-name="Layer 5" xmlns="http://www.w3.org/2000/svg" xmlns:xlink="http://www.w3.org/1999/xlink" width="174.76" height="174.76" viewBox="0 0 174.76 174.76"><defs><style>.cls-1{fill:url(#linear-gradient-patient);}.cls-2{fill:url(#linear-gradient-2-patient);}.cls-3{fill:#008ed3;}.cls-4{fill:#a2238d;}.cls-5{fill:#562d84;}</style><linearGradient id="linear-gradient-patient" x1="1365.33" y1="-350.15" x2="1517.59" y2="-350.15" gradientUnits="userSpaceOnUse"><stop offset="0" stop-color="#b31e8d"/><stop offset="1" stop-color="#e0deef"/></linearGradient><linearGradient id="linear-gradient-2-patient" x1="1388.66" y1="-372.96" x2="1540.09" y2="-372.96" gradientUnits="userSpaceOnUse"><stop offset="0" stop-color="#e0deef"/><stop offset="1" stop-color="#0094d9"/></linearGradient></defs><title>ept-layout</title><g class="spin-1"><path class="cls-1" d="M1452.47-281.55a80.24,80.24,0,0,1-80.24-80.24,80.09,80.09,0,0,1,31.33-63.59,11.6,11.6,0,0,0-12.69,2.5,86.63,86.63,0,0,0-25.54,61.66,86.63,86.63,0,0,0,25.54,61.66A86.63,86.63,0,0,0,1452.53-274a86.63,86.63,0,0,0,61.66-25.54,11.61,11.61,0,0,0,2.08-13.59A80.1,80.1,0,0,1,1452.47-281.55Z" transform="translate(-1365.33 448.78)"/><path class="cls-2" d="M1514.55-423.24a86.63,86.63,0,0,0-61.66-25.54,86.63,86.63,0,0,0-61.66,25.54c-0.48.48-2.6,2.47-2.56,3,0.13,1.86,2.57,2.61,4.43,4.5A80,80,0,0,1,1452.47-442a80.24,80.24,0,0,1,80.24,80.24,80,80,0,0,1-26.08,59.2c2.09,2.39,2.88,6,4.93,5.36a25.42,25.42,0,0,0,3-2.68,86.63,86.63,0,0,0,25.54-61.66A86.63,86.63,0,0,0,1514.55-423.24Z" transform="translate(-1365.33 448.78)"/><circle class="cls-3" cx="1509.12" cy="-299.85" r="3.73" transform="translate(-711.29 1428.06) rotate(-45)"/><circle class="cls-4" cx="1390.83" cy="-418.12" r="3.27" transform="translate(-662.31 1309.78) rotate(-45)"/></g><path class="cls-5" d="M1452.68-305.52a3,3,0,0,1-4.17.64l-7.48-5.5a186.32,186.32,0,0,1-32-30.46c-12.53-15.57-11.23-29.48-10.8-34,0-.35.06-0.62,0.07-0.81-0.26-2.53,1.48-7.92,4-12.23a29.08,29.08,0,0,1,20.09-14.28c13-2.46,22.53,3.33,27.7,7.83a3,3,0,0,0,3.92,0c6.19-5.46,18.9-12.54,37.91-3.58l0.15,0.08c8.32,4.52,21.49,19.29,11.81,42.85-11.51,28-34.82,40.28-35.8,40.79h0a3,3,0,0,1-2.93-.11h0c-1.24-.76-29.8-18.47-48.47-44.94a3,3,0,0,1,.8-4.17h0a3,3,0,0,1,4.11.79c14.49,20.49,35.7,35.89,43.58,41.21a3,3,0,0,0,3.28,0c6.52-4.25,21.66-15.82,29.9-35.87,9.58-23.32-6.8-34-8.94-35.23l-0.28-.15c-22.87-10.63-34.05,5.66-34.52,6.36h0a3,3,0,0,1-4.88.12h0c-0.4-.53-10-13.18-26.22-10.14-14.44,2.72-18.75,16.33-19.24,19.64a3.16,3.16,0,0,0,0,.65,11.88,11.88,0,0,1-.09,1.72c-0.37,4-1.5,16.06,9.51,29.74,13.43,16.7,30.67,29.25,30.84,29.37l7.5,5.51a3,3,0,0,1,.64,4.17h0Zm-54.35-70.12a2.53,2.53,0,0,0,.12.57A3,3,0,0,1,1398.33-375.64Zm5.92-.59h0Zm-0.13-.72h0Z" transform="translate(-1365.33 448.78)"/></svg>